<?xml version="1.0" encoding="UTF-8"?>
<svg width="1024px" height="316px" viewBox="0 0 1024 316" version="1.1" xmlns="http://www.w3.org/2000/svg" xmlns:xlink="http://www.w3.org/1999/xlink">
    <!-- Generator: Sketch 43.2 (39069) - http://www.bohemiancoding.com/sketch -->
    <title>ki-labs_logo__1024w_transparent</title>
    <desc>Created with Sketch.</desc>
    <defs></defs>
    <g id="Page-1" stroke="none" stroke-width="1" fill="none" fill-rule="evenodd">
        <g id="ki-labs_logo__1024x1024_white_bg" transform="translate(0.000000, -354.000000)" fill-rule="nonzero">
            <g id="ki-labs_logo__1024w_transparent" transform="translate(0.000000, 354.000000)">
                <path d="M191.061923,0 L76.4355937,146.951387 L191.531936,313.153153 L283.472279,313.153153 L158.981363,145.072468 L275.954911,0 L191.061923,0 Z M0,313.153153 L75.4955666,313.153153 L75.4955666,0 L0,0 L0,313.153153 Z M336.455622,313.153153 L411.954037,313.153153 L411.954037,0 L336.455622,0 L336.455622,313.153153 Z" id="Fill-1" fill="#FFCC00"></path>
                <path d="M967.606877,316 C956.585772,316 946.3936,314.434234 937.318066,311.351099 C928.214047,308.259423 920.215271,303.824036 913.541079,298.173045 L912.846028,297.583748 L912.846028,265.135387 L929.740878,265.135387 L932.165009,287.076036 C936.184336,290.919279 941.280423,293.763279 947.32793,295.528324 C953.762842,297.41009 960.588009,298.363784 967.606877,298.363784 C978.87011,298.363784 987.828853,295.898414 994.23528,291.033153 C1000.5591,286.230523 1003.6327,280.619387 1003.6327,273.886595 C1003.6327,267.538126 1001.06899,262.112036 995.796294,257.300865 C990.423897,252.407135 980.431125,248.319063 966.094288,245.156216 C948.44172,241.31582 935.107578,236.111784 926.465026,229.692144 C917.517678,223.05045 912.979911,213.641622 912.979911,201.733261 C912.979911,189.950162 918.021874,179.878018 927.957675,171.792973 C937.770988,163.804721 950.837364,159.753658 966.789338,159.753658 C977.742078,159.753658 987.902916,161.458919 996.992693,164.826739 C1006.12805,168.21164 1013.69384,172.857694 1019.47928,178.63964 L1020.0376,179.197622 L1020.78107,211.702919 L1003.66973,211.702919 L1001.67004,189.859063 C997.895688,186.075604 993.12149,183.07218 987.464237,180.922811 C981.516429,178.668108 974.560229,177.523676 966.789338,177.523676 C955.47768,177.523676 946.940525,179.943495 941.411457,184.709117 C935.888086,189.471892 933.204736,194.86382 933.204736,201.189514 C933.204736,207.429802 935.489286,212.445946 940.19227,216.519784 C945.029136,220.713189 955.030455,224.490955 969.925611,227.747748 C987.600968,231.684937 1001.0576,237.170811 1009.93373,244.05164 C1019.08333,251.145982 1023.7208,260.910667 1023.7208,273.072396 C1023.7208,285.868973 1018.46234,296.368144 1008.08786,304.270991 C997.881445,312.05427 984.259599,316 967.606877,316 Z M836.031575,316 C824.979136,316 815.296857,313.748144 807.258202,309.312757 C800.831835,305.765586 795.334101,300.93164 790.859003,294.896324 L789.400536,313.150306 L771.770756,313.150306 L771.770756,115.254595 L749.651635,113.492396 L749.651635,97.6354595 L791.85885,97.6354595 L791.85885,180.991135 C796.268431,175.089622 801.549674,170.312613 807.61997,166.73982 C815.49056,162.105153 824.956348,159.753658 835.758113,159.753658 C853.994638,159.753658 868.462509,167.129838 878.757229,181.674378 C888.903824,196.013946 894.048336,215.309874 894.048336,239.029802 L894.048336,241.876649 C894.048336,264.187387 888.889581,282.270559 878.717349,295.625117 C868.422629,309.144793 854.060155,316 836.031575,316 Z M791.85885,271.717297 C795.31701,279.662847 800.487159,286.076793 807.232565,290.785477 C814.057731,295.545405 822.74586,297.959532 833.049126,297.959532 C846.588364,297.959532 856.487134,293.09427 863.309451,283.084757 C870.197286,272.975604 873.689629,259.111459 873.689629,241.876649 L873.689629,239.029802 C873.689629,220.778667 870.137466,205.772937 863.129992,194.425405 C856.207974,183.23445 846.27787,177.794126 832.772815,177.794126 C821.89129,177.794126 813.063581,180.475856 806.531817,185.765297 C800.002902,191.057586 795.066336,197.918486 791.85885,206.165802 L791.85885,271.717297 Z M666.416512,316 C651.581176,316 639.893506,312.077045 631.681088,304.342162 C623.434487,296.578811 619.25564,285.965766 619.25564,272.801946 C619.25564,258.610414 625.434181,247.203099 637.62035,238.896 C649.570088,230.748324 665.926559,226.61755 686.228294,226.61755 L716.690868,226.61755 L716.690868,209.192 C716.690868,199.202414 713.603022,191.609874 707.247869,185.978811 C700.909808,180.370523 691.828577,177.523676 680.257698,177.523676 C672.358623,177.523676 665.052049,178.608324 658.545922,180.749153 C652.387321,182.776108 647.143109,185.509081 642.944322,188.879748 L641.514341,209.530775 L624.26342,209.530775 L624.414394,178.383423 L625.174962,177.796973 C632.111222,172.439207 640.497403,168.046523 650.097073,164.74418 C659.713834,161.433297 670.088315,159.753658 680.935657,159.753658 C697.525711,159.753658 711.10198,164.060937 721.282758,172.553081 C731.568933,181.139171 736.78181,193.557117 736.78181,209.46245 L736.78181,281.615784 C736.78181,284.590739 736.850176,287.457514 736.98121,290.13355 C737.086607,292.274378 737.291703,294.389586 737.593652,296.436468 L752.525839,297.404396 L752.525839,313.150306 L720.063571,313.150306 L719.724592,311.604468 C718.627894,306.582631 717.841689,302.187099 717.388767,298.540288 C717.149487,296.664216 716.972876,294.759676 716.856085,292.838054 C711.754302,298.822126 705.401998,303.963532 697.913116,308.15409 C688.603999,313.360973 678.007331,316 666.416512,316 Z M685.957681,243.032468 C671.686361,243.032468 660.166757,245.996036 651.723605,251.837766 C643.391547,257.602631 639.340885,264.637189 639.340885,273.342847 C639.340885,280.687712 641.807743,286.438342 646.886738,290.924973 C651.965733,295.411604 659.12703,297.686234 668.176927,297.686234 C679.517071,297.686234 689.632332,295.04436 698.237852,289.834631 C706.66961,284.724541 712.879486,278.071459 716.690868,270.054739 L716.690868,243.032468 L685.957681,243.032468 Z M540.657984,313.150306 L540.657984,297.430018 L562.779954,295.66782 L562.779954,115.254595 L540.657984,113.492396 L540.657984,97.6354595 L582.865199,97.6354595 L582.865199,295.66782 L604.987169,297.430018 L604.987169,313.150306 L540.657984,313.150306 L540.657984,313.150306 Z" id="Fill-2" fill="#878787"></path>
            </g>
        </g>
    </g>
</svg>